{"glyphs":{":":{"x_min":0,"x_max":253,"ha":253,"o":"m 21 36 q 21 74 41 96 q 61 118 95 118 q 116 118 129 105 q 142 93 142 67 q 142 32 123 9 q 103 -14 70 -14 q 47 -14 34 -1 q 21 11 21 36 z m 99 467 q 99 504 119 527 q 138 549 173 549 q 220 549 220 498 q 220 462 200 440 q 180 417 148 417 q 125 417 112 430 q 99 443 99 467 z"},"$":{"x_min":0,"x_max":551,"ha":551,"o":"m 460 240 q 460 161 405 112 q 350 62 254 52 l 230 -58 l 165 -58 l 189 51 q 94 58 35 86 l 35 161 q 75 141 121 130 q 167 119 202 119 l 250 340 q 182 364 152 400 q 121 437 121 492 q 121 570 174 617 q 227 664 320 672 l 339 758 l 404 758 l 385 671 q 462 665 523 634 l 492 568 q 433 599 371 603 l 325 388 q 398 361 429 327 q 460 293 460 240 z m 268 122 q 320 128 351 159 q 382 189 382 234 q 382 260 366 281 q 350 301 310 317 z m 306 603 q 253 598 225 569 q 196 541 196 493 q 196 467 213 446 q 229 424 265 411 z"},"?":{"x_min":0,"x_max":427,"ha":427,"o":"m 127 197 q 138 260 162 301 q 187 342 243 386 q 306 435 325 457 q 345 478 356 502 q 367 527 367 557 q 367 603 342 627 q 317 652 270 652 q 230 652 194 639 q 158 627 126 612 l 96 675 q 141 700 190 712 q 239 724 279 724 q 360 724 405 683 q 450 642 450 567 q 450 507 418 456 q 386 406 308 347 q 247 303 226 275 q 204 248 193 197 z m 77 36 q 77 74 97 96 q 116 118 151 118 q 172 118 185 105 q 198 93 198 67 q 198 31 178 9 q 158 -14 126 -14 q 104 -14 90 -1 q 77 11 77 36 z"},"<":{"x_min":0,"x_max":551,"ha":551,"o":"m 508 118 l 59 324 l 59 372 l 508 606 l 508 533 l 143 352 l 508 192 z"},"'":{"x_min":0,"x_max":217,"ha":217,"o":"m 237 714 l 162 456 l 110 456 l 145 714 z"},"=":{"x_min":0,"x_max":551,"ha":551,"o":"m 62 419 l 62 487 l 511 487 l 511 419 z m 62 217 l 62 286 l 511 286 l 511 217 z"},"a":{"x_min":0,"x_max":565,"ha":565,"o":"m 312 545 q 357 545 392 521 q 427 497 447 451 l 452 451 l 485 535 l 547 535 l 433 0 l 368 0 l 381 102 l 377 102 q 290 -10 193 -10 q 125 -10 86 39 q 48 87 48 171 q 48 272 83 359 q 117 446 178 496 q 239 545 312 545 z m 219 58 q 267 58 313 103 q 360 148 390 221 q 419 293 419 366 q 419 417 392 446 q 364 476 320 476 q 269 476 225 434 q 182 392 157 320 q 132 249 132 169 q 132 113 155 86 q 178 58 219 58 z"},"L":{"x_min":0,"x_max":474,"ha":474,"o":"m 42 0 l 193 714 l 276 714 l 141 75 l 417 75 l 401 0 z"},"3":{"x_min":0,"x_max":551,"ha":551,"o":"m 524 566 q 524 490 475 437 q 425 384 338 368 l 338 364 q 398 353 433 312 q 468 271 468 210 q 468 145 438 95 q 407 46 349 18 q 291 -10 211 -10 q 108 -10 23 29 l 23 109 q 69 85 120 72 q 171 59 213 59 q 292 59 336 98 q 380 137 380 204 q 380 268 341 301 q 303 334 234 334 l 170 334 l 185 404 l 253 404 q 333 404 387 446 q 440 489 440 557 q 440 602 412 628 q 383 655 335 655 q 296 655 258 642 q 221 628 173 596 l 134 654 q 229 724 341 724 q 428 724 476 682 q 524 639 524 566 z"},";":{"x_min":0,"x_max":253,"ha":253,"o":"m 142 116 l 146 105 q 91 -10 14 -129 l -49 -129 q 13 11 51 116 z m 99 467 q 99 504 119 527 q 138 549 173 549 q 220 549 220 498 q 220 462 200 440 q 180 417 148 417 q 125 417 112 430 q 99 443 99 467 z"},"J":{"x_min":0,"x_max":267,"ha":267,"o":"m -81 -188 q -132 -188 -156 -176 l -153 -104 q -119 -114 -82 -114 q -33 -114 -1 -83 q 31 -53 43 6 l 193 714 l 276 714 l 125 -3 q 86 -188 -81 -188 z"},"V":{"x_min":0,"x_max":548,"ha":548,"o":"m 234 96 q 264 167 313 261 l 547 714 l 640 714 l 259 0 l 171 0 l 92 714 l 175 714 l 222 260 q 232 164 232 96 z"},"\"":{"x_min":0,"x_max":386,"ha":386,"o":"m 237 714 l 162 456 l 110 456 l 145 714 z m 407 714 l 332 456 l 280 456 l 315 714 z"},"7":{"x_min":0,"x_max":551,"ha":551,"o":"m 85 0 l 460 641 l 109 641 l 124 714 l 559 714 l 546 646 l 173 0 z"},"S":{"x_min":0,"x_max":502,"ha":502,"o":"m 446 207 q 446 104 377 47 q 309 -10 184 -10 q 132 -10 93 -3 q 54 4 19 21 l 19 104 q 98 63 185 63 q 264 63 311 100 q 357 137 357 201 q 357 239 331 268 q 306 297 236 337 q 162 378 134 420 q 105 461 105 518 q 105 609 169 667 q 234 724 339 724 q 387 724 429 715 q 471 706 517 683 l 485 610 q 453 628 413 639 q 373 650 339 650 q 273 650 234 616 q 194 582 194 524 q 194 498 202 479 q 210 460 229 443 q 247 427 298 397 q 370 354 395 330 q 420 305 433 276 q 446 246 446 207 z"},"}":{"x_min":0,"x_max":349,"ha":349,"o":"m 139 714 q 209 714 247 688 q 284 663 284 605 q 284 582 274 536 l 250 429 q 242 396 242 375 q 242 305 344 305 l 328 235 q 270 235 235 214 q 201 193 190 142 l 157 -17 q 140 -97 99 -128 q 59 -158 -30 -158 l -36 -158 l -36 -89 q 20 -89 45 -71 q 71 -54 80 -11 l 115 146 q 127 203 158 234 q 189 264 241 273 l 241 276 q 168 296 168 379 q 168 408 177 443 l 201 547 q 208 579 208 595 q 208 621 188 633 q 168 645 120 645 l 134 714 z"},"Z":{"x_min":0,"x_max":531,"ha":531,"o":"m 432 0 l -8 0 l 6 67 l 457 638 l 137 638 l 153 714 l 572 714 l 559 646 l 108 75 l 448 75 z"},"x":{"x_min":0,"x_max":478,"ha":478,"o":"m 228 212 l 59 0 l -36 0 l 196 276 l 79 535 l 162 535 l 247 334 l 408 535 l 503 535 l 281 272 l 404 0 l 322 0 z"},")":{"x_min":0,"x_max":285,"ha":285,"o":"m 244 422 q 244 255 185 115 q 125 -26 -2 -158 l -78 -158 q 164 111 164 422 q 164 588 109 714 l 173 714 q 244 583 244 422 z"},"&":{"x_min":0,"x_max":670,"ha":670,"o":"m 360 658 q 309 658 280 629 q 252 600 252 546 q 252 487 292 431 q 360 466 385 485 q 411 504 426 526 q 441 549 441 577 q 441 615 420 636 q 399 658 360 658 z m 230 58 q 272 58 312 74 q 352 90 407 135 l 258 346 q 195 313 168 290 q 141 266 126 237 q 112 208 112 173 q 112 121 144 90 q 177 58 230 58 z m 32 167 q 32 239 76 293 q 120 346 224 396 q 174 477 174 547 q 174 627 226 676 q 277 725 363 725 q 436 725 478 687 q 521 648 521 583 q 521 545 505 516 q 489 487 462 463 q 436 439 400 419 q 365 399 325 379 l 461 189 q 523 243 558 333 l 640 333 q 591 218 502 132 l 601 0 l 503 0 l 446 81 q 387 32 333 11 q 280 -10 213 -10 q 131 -10 82 37 q 32 84 32 167 z"},"_":{"x_min":0,"x_max":394,"ha":394,"o":"m 304 -158 l -92 -158 l -77 -90 l 319 -90 z"},"v":{"x_min":0,"x_max":462,"ha":462,"o":"m 109 0 l 48 535 l 130 535 l 161 236 q 173 110 173 59 l 176 59 q 238 193 263 240 l 422 535 l 509 535 l 220 0 z"},"O":{"x_min":0,"x_max":720,"ha":720,"o":"m 689 443 q 689 312 646 208 q 603 104 523 47 q 443 -10 338 -10 q 213 -10 143 63 q 73 136 73 268 q 73 397 120 503 q 167 610 249 667 q 331 725 433 725 q 552 725 621 650 q 689 575 689 443 z m 427 651 q 350 651 290 602 q 229 552 196 464 q 162 376 162 270 q 162 173 210 118 q 258 64 340 64 q 414 64 473 112 q 532 159 566 248 q 600 337 600 445 q 600 542 554 596 q 508 651 427 651 z"},"(":{"x_min":0,"x_max":285,"ha":285,"o":"m 40 133 q 40 298 99 439 q 157 580 286 714 l 363 714 q 243 582 181 436 q 120 289 120 134 q 120 -32 176 -158 l 112 -158 q 40 -28 40 133 z"},"C":{"x_min":0,"x_max":585,"ha":585,"o":"m 460 650 q 375 650 308 603 q 241 555 201 464 q 162 372 162 264 q 162 173 210 118 q 257 64 341 64 q 409 64 498 92 l 498 19 q 456 4 418 -3 q 380 -10 326 -10 q 208 -10 141 63 q 73 136 73 262 q 73 390 125 499 q 176 609 263 667 q 350 724 460 724 q 556 724 630 685 l 596 616 q 529 650 460 650 z"},"W":{"x_min":0,"x_max":852,"ha":852,"o":"m 614 0 l 531 0 l 507 471 q 503 538 503 609 l 500 609 q 488 574 470 533 q 453 493 224 0 l 139 0 l 109 714 l 192 714 l 207 274 l 208 231 q 208 183 203 105 l 206 105 q 250 224 282 292 l 480 714 l 567 714 l 588 294 q 592 219 592 146 l 592 105 l 596 105 q 633 214 660 278 l 849 714 l 938 714 z"},"A":{"x_min":0,"x_max":555,"ha":555,"o":"m 397 227 l 155 227 l 35 0 l -57 0 l 333 714 l 418 714 l 508 0 l 425 0 z m 388 303 l 371 449 q 359 537 357 620 q 339 577 318 535 q 296 492 196 303 z"},"f":{"x_min":0,"x_max":313,"ha":313,"o":"m -51 -240 q -84 -240 -112 -230 l -112 -161 q -81 -172 -57 -172 q -20 -172 0 -142 q 20 -111 32 -55 l 143 473 l 49 473 l 55 506 l 156 538 l 167 587 q 189 685 229 725 q 269 765 347 765 q 367 765 395 760 q 423 754 439 747 l 418 684 q 381 698 351 698 q 309 698 286 675 q 263 651 249 588 l 237 535 l 353 535 l 341 473 l 225 473 l 112 -63 q 93 -155 53 -198 q 14 -240 -51 -240 z"},"Q":{"x_min":0,"x_max":720,"ha":720,"o":"m 427 651 q 350 651 290 602 q 229 552 196 464 q 162 376 162 270 q 162 173 210 118 q 258 64 340 64 q 417 64 476 113 q 535 162 568 250 q 600 338 600 445 q 600 542 554 596 q 508 651 427 651 z m 354 -9 l 346 -10 l 338 -10 q 213 -10 143 63 q 73 136 73 268 q 73 397 120 503 q 167 610 249 667 q 331 725 433 725 q 552 725 621 650 q 689 575 689 443 q 689 280 621 162 q 553 43 438 5 l 572 -170 l 465 -170 z"},"w":{"x_min":0,"x_max":717,"ha":717,"o":"m 406 0 l 390 294 q 388 340 388 378 l 388 454 l 384 454 l 359 396 l 319 304 l 177 0 l 78 0 l 57 535 l 137 535 l 146 245 l 146 202 q 146 130 142 71 l 145 71 q 168 131 212 228 l 356 535 l 445 535 l 463 245 q 466 163 466 117 l 466 91 l 465 71 l 468 71 q 481 113 508 177 q 535 242 666 535 l 753 535 l 506 0 z"},"-":{"x_min":0,"x_max":312,"ha":312,"o":"m 27 229 l 44 306 l 278 306 l 261 229 z"},"E":{"x_min":0,"x_max":511,"ha":511,"o":"m 401 0 l 42 0 l 193 714 l 552 714 l 536 639 l 260 639 l 212 410 l 469 410 l 455 336 l 197 336 l 141 74 l 417 74 z"},"s":{"x_min":0,"x_max":428,"ha":428,"o":"m 359 152 q 359 76 305 33 q 251 -10 153 -10 q 70 -10 4 24 l 4 101 q 38 81 78 69 q 117 58 151 58 q 212 58 244 83 q 275 107 275 145 q 275 173 258 192 q 241 211 184 244 q 121 280 94 314 q 68 348 68 395 q 68 462 117 504 q 167 545 247 545 q 331 545 408 509 l 382 442 l 354 454 q 305 475 247 475 q 202 475 176 454 q 150 433 150 399 q 150 372 167 352 q 185 333 239 302 q 291 272 314 251 q 336 230 348 206 q 359 182 359 152 z"},">":{"x_min":0,"x_max":551,"ha":551,"o":"m 59 192 l 423 352 l 59 533 l 59 606 l 508 372 l 508 324 l 59 118 z"},"l":{"x_min":0,"x_max":254,"ha":254,"o":"m 110 0 l 28 0 l 190 760 l 272 760 z"},"8":{"x_min":0,"x_max":551,"ha":551,"o":"m 362 725 q 447 725 494 683 q 542 641 542 568 q 542 505 504 458 q 466 411 374 372 q 436 334 462 292 q 488 249 488 193 q 488 133 458 87 q 429 40 374 15 q 319 -10 245 -10 q 152 -10 100 38 q 47 86 47 169 q 47 241 93 294 q 140 347 238 384 q 191 417 172 454 q 152 491 152 538 q 152 592 178 635 q 205 678 253 701 q 302 725 362 725 z m 297 342 q 207 312 169 272 q 132 231 132 173 q 132 121 166 90 q 199 59 254 59 q 322 59 362 95 q 403 131 403 191 q 403 239 377 276 q 352 312 297 342 z m 356 655 q 300 655 267 623 q 234 591 234 537 q 234 497 253 467 q 272 437 315 410 q 394 439 426 474 q 459 509 459 559 q 459 603 431 629 q 403 655 356 655 z"},"\\":{"x_min":0,"x_max":350,"ha":350,"o":"m 183 714 l 289 0 l 214 0 l 108 714 z"},"e":{"x_min":0,"x_max":493,"ha":493,"o":"m 240 -10 q 150 -10 99 43 q 48 97 48 191 q 48 283 84 367 q 121 451 181 498 q 241 545 313 545 q 388 545 425 512 q 463 480 463 422 q 463 334 382 284 q 301 234 150 234 l 134 234 l 132 195 q 132 131 162 95 q 192 59 255 59 q 286 59 318 68 q 351 77 399 100 l 399 29 q 353 7 318 -1 q 283 -10 240 -10 z m 308 475 q 258 475 214 429 q 169 383 146 302 l 152 302 q 263 302 323 331 q 382 360 382 415 q 382 441 364 458 q 346 475 308 475 z"},"b":{"x_min":0,"x_max":577,"ha":577,"o":"m 266 -10 q 219 -10 183 15 q 147 40 129 83 l 124 83 l 90 0 l 29 0 l 190 760 l 272 760 q 247 642 234 579 q 220 516 197 432 l 201 432 q 247 490 291 517 q 335 544 382 544 q 451 544 489 496 q 528 447 528 363 q 528 261 494 174 q 461 87 401 39 q 341 -10 266 -10 z m 357 476 q 310 476 261 430 q 213 383 184 313 q 156 243 156 169 q 156 115 183 87 q 210 58 261 58 q 310 58 351 98 q 393 137 418 210 q 444 283 444 365 q 444 476 357 476 z"},"%":{"x_min":0,"x_max":793,"ha":793,"o":"m 717 714 l 187 0 l 113 0 l 643 714 z m 627 377 q 594 377 569 345 q 543 314 528 253 q 512 193 512 136 q 512 52 564 52 q 596 52 621 83 q 646 115 663 180 q 680 246 680 296 q 680 377 627 377 z m 748 303 q 748 251 733 188 q 717 125 693 82 q 668 39 634 14 q 599 -10 557 -10 q 503 -10 474 27 q 444 63 444 134 q 444 215 469 289 q 493 364 535 401 q 577 438 633 438 q 689 438 719 403 q 748 368 748 303 z m 265 663 q 233 663 207 632 q 181 602 166 541 q 150 480 150 422 q 150 338 202 338 q 228 338 248 357 q 269 376 284 413 q 299 449 309 498 q 318 547 318 582 q 318 663 265 663 z m 386 589 q 386 536 371 473 q 355 410 330 367 q 306 324 271 300 q 237 276 195 276 q 142 276 112 312 q 82 349 82 420 q 82 501 107 575 q 131 650 173 687 q 215 724 271 724 q 328 724 357 689 q 386 654 386 589 z"},"m":{"x_min":0,"x_max":872,"ha":872,"o":"m 340 0 l 412 338 q 421 384 421 404 q 421 438 406 457 q 391 476 354 476 q 313 476 274 447 q 235 417 206 363 q 176 309 160 232 l 111 0 l 29 0 l 143 535 l 211 535 l 200 436 l 205 436 q 248 494 290 520 q 332 545 377 545 q 432 545 462 513 q 492 481 497 425 l 501 425 q 543 486 590 515 q 638 545 686 545 q 748 545 782 512 q 816 479 816 415 q 816 382 805 328 l 735 0 l 652 0 l 724 338 q 734 389 734 409 q 734 439 717 458 q 700 476 664 476 q 625 476 586 448 q 547 419 518 367 q 489 315 474 244 l 422 0 z"},"#":{"x_min":0,"x_max":646,"ha":646,"o":"m 506 439 l 458 273 l 597 273 l 591 210 l 440 210 l 379 0 l 311 0 l 374 210 l 226 210 l 164 0 l 99 0 l 158 210 l 31 210 l 37 273 l 176 273 l 225 439 l 90 439 l 96 501 l 243 501 l 303 714 l 371 714 l 310 501 l 459 501 l 521 714 l 586 714 l 525 501 l 654 501 l 648 439 z m 244 273 l 392 273 l 439 439 l 291 439 z"},",":{"x_min":0,"x_max":240,"ha":240,"o":"m 142 116 l 146 105 q 91 -10 14 -129 l -49 -129 q 13 11 51 116 z"},"n":{"x_min":0,"x_max":577,"ha":577,"o":"m 356 0 l 428 338 q 438 389 438 408 q 438 439 421 458 q 403 476 365 476 q 322 476 281 447 q 239 417 208 363 q 176 309 160 232 l 111 0 l 29 0 l 143 535 l 211 535 l 200 436 l 205 436 q 252 496 296 520 q 339 545 386 545 q 448 545 484 511 q 520 477 520 416 q 520 377 509 328 l 439 0 z"},"h":{"x_min":0,"x_max":577,"ha":577,"o":"m 356 0 l 428 338 q 437 384 437 404 q 437 476 365 476 q 322 476 281 447 q 239 418 208 364 q 176 309 160 231 l 111 0 l 29 0 l 190 760 l 272 760 q 263 720 255 682 q 247 645 239 606 q 230 567 220 524 q 210 482 197 432 l 202 432 q 248 492 293 518 q 337 544 386 544 q 450 544 485 509 q 520 474 520 409 q 520 379 509 328 q 490 234 438 0 z"},"z":{"x_min":0,"x_max":444,"ha":444,"o":"m 337 0 l -14 0 l -3 57 l 336 474 l 102 474 l 115 535 l 436 535 l 422 467 l 90 61 l 349 61 z"},"B":{"x_min":0,"x_max":598,"ha":598,"o":"m 376 714 q 587 714 587 550 q 587 481 544 434 q 502 386 425 372 l 425 367 q 481 352 511 313 q 541 275 541 221 q 541 118 467 59 q 393 0 268 0 l 42 0 l 193 714 z m 212 408 l 333 408 q 409 408 455 444 q 500 479 500 541 q 500 592 468 617 q 435 642 365 642 l 262 642 z m 140 71 l 270 71 q 358 71 406 110 q 453 149 453 221 q 453 278 417 308 q 380 338 312 338 l 197 338 z"},"K":{"x_min":0,"x_max":557,"ha":557,"o":"m 505 0 l 414 0 q 379 88 343 176 q 306 263 271 352 l 186 288 l 125 0 l 42 0 l 193 714 l 276 714 l 202 367 l 544 714 l 646 714 l 334 403 z"},"R":{"x_min":0,"x_max":569,"ha":569,"o":"m 188 297 l 125 0 l 42 0 l 193 714 l 349 714 q 567 714 567 535 q 567 365 387 316 l 504 0 l 413 0 l 311 297 z m 260 641 q 210 400 203 368 l 285 368 q 379 368 430 410 q 481 451 481 529 q 481 588 448 615 q 415 641 341 641 z"},"T":{"x_min":0,"x_max":498,"ha":498,"o":"m 238 0 l 154 0 l 289 640 l 91 640 l 107 714 l 588 714 l 573 640 l 374 640 z"},"P":{"x_min":0,"x_max":566,"ha":566,"o":"m 566 530 q 566 409 486 345 q 406 281 251 281 l 185 281 l 125 0 l 42 0 l 193 714 l 354 714 q 458 714 512 668 q 566 622 566 530 z m 200 352 l 265 352 q 371 352 425 396 q 480 441 480 527 q 480 588 446 615 q 412 642 342 642 l 262 642 z"},"|":{"x_min":0,"x_max":551,"ha":551,"o":"m 264 760 l 332 760 l 332 -242 l 264 -242 z"},"t":{"x_min":0,"x_max":324,"ha":324,"o":"m 193 57 q 220 57 263 70 l 263 7 q 247 0 222 -5 q 198 -10 183 -10 q 122 -10 90 19 q 57 48 57 106 q 57 138 66 179 l 128 473 l 44 473 l 51 509 l 141 547 l 202 658 l 250 658 l 223 535 l 357 535 l 344 473 l 211 473 l 148 178 q 139 136 139 114 q 139 86 153 72 q 167 57 193 57 z"},"M":{"x_min":0,"x_max":837,"ha":837,"o":"m 330 0 l 249 633 l 245 633 q 242 598 231 536 q 221 475 213 439 l 120 0 l 41 0 l 192 714 l 311 714 l 384 126 l 388 126 l 710 714 l 840 714 l 692 0 l 607 0 q 668 288 701 442 q 734 596 747 634 l 744 634 l 394 0 z"},"g":{"x_min":0,"x_max":501,"ha":501,"o":"m 537 535 l 525 483 l 422 471 q 442 441 442 394 q 442 301 385 245 q 328 190 233 190 q 206 190 192 194 q 124 168 124 130 q 124 110 140 103 q 156 97 187 93 l 244 86 q 333 75 372 43 q 412 11 412 -52 q 412 -142 341 -191 q 270 -240 140 -240 q 45 -240 -8 -204 q -62 -168 -62 -103 q -62 -52 -27 -14 q 8 23 87 50 q 49 70 49 109 q 49 143 74 167 q 99 191 143 212 q 112 228 93 258 q 73 289 73 329 q 73 424 132 484 q 190 545 281 545 q 319 545 356 535 z m 17 -95 q 17 -133 49 -155 q 81 -177 143 -177 q 232 -177 282 -146 q 332 -115 332 -58 q 332 -28 306 -10 q 279 7 216 14 l 138 22 q 80 10 48 -21 q 17 -52 17 -95 z m 153 332 q 153 291 175 269 q 197 247 236 247 q 274 247 303 268 q 332 288 347 324 q 363 360 363 402 q 363 442 341 463 q 320 484 280 484 q 242 484 213 464 q 185 444 169 409 q 153 374 153 332 z"},"j":{"x_min":0,"x_max":254,"ha":254,"o":"m -66 -240 q -100 -240 -126 -230 l -126 -161 q -96 -172 -68 -172 q -7 -172 14 -72 l 143 535 l 224 535 l 94 -79 q 77 -163 38 -201 q 0 -240 -66 -240 z m 166 672 q 166 699 182 717 q 197 734 222 734 q 264 734 264 690 q 264 663 248 645 q 231 626 210 626 q 191 626 179 638 q 166 650 166 672 z"},"i":{"x_min":0,"x_max":254,"ha":254,"o":"m 111 0 l 29 0 l 143 535 l 225 535 z m 166 672 q 166 699 182 717 q 197 734 222 734 q 265 734 265 690 q 265 663 249 645 q 232 626 211 626 q 191 626 179 638 q 166 650 166 672 z"},"y":{"x_min":0,"x_max":462,"ha":462,"o":"m 48 535 l 130 535 l 166 269 q 171 235 176 170 q 180 104 180 64 l 183 64 q 200 106 226 162 q 251 217 263 238 l 422 535 l 509 535 l 169 -91 q 124 -175 79 -208 q 35 -240 -28 -240 q -63 -240 -96 -230 l -96 -164 q -65 -173 -32 -173 q 8 -173 36 -148 q 65 -124 92 -75 l 129 -9 z"},"@":{"x_min":0,"x_max":847,"ha":847,"o":"m 820 416 q 820 329 793 258 q 766 187 717 147 q 668 107 609 107 q 513 107 505 197 l 501 197 q 447 107 359 107 q 303 107 271 144 q 239 181 239 246 q 239 323 272 385 q 305 447 364 482 q 423 517 491 517 q 523 517 553 511 q 584 505 627 488 q 596 370 579 308 q 562 247 564 224 q 564 167 614 167 q 652 167 683 200 q 714 232 732 289 q 750 346 750 408 q 750 525 688 587 q 625 650 507 650 q 396 650 308 598 q 221 545 173 453 q 125 361 125 250 q 125 118 195 46 q 265 -27 395 -27 q 491 -27 600 15 l 600 -47 q 493 -91 384 -91 q 230 -91 142 -1 q 54 89 54 246 q 54 374 116 483 q 178 593 284 653 q 390 713 521 713 q 614 713 682 676 q 749 639 784 572 q 820 504 820 416 z m 481 458 q 435 458 396 431 q 357 404 334 356 q 312 309 312 253 q 312 208 328 187 q 344 167 376 167 q 467 167 509 321 l 543 447 q 512 458 481 458 z"},".":{"x_min":0,"x_max":253,"ha":253,"o":"m 21 36 q 21 74 41 96 q 61 118 95 118 q 116 118 129 105 q 142 93 142 67 q 142 32 123 9 q 103 -14 70 -14 q 47 -14 34 -1 q 21 11 21 36 z"},"p":{"x_min":0,"x_max":577,"ha":577,"o":"m 266 -10 q 219 -10 183 15 q 147 39 128 83 l 123 83 l 121 64 q 120 52 116 30 q 112 8 60 -240 l -21 -240 l 143 535 l 211 535 l 198 433 l 202 433 q 290 544 384 544 q 451 544 489 496 q 528 449 528 363 q 528 259 494 173 q 460 86 401 38 q 341 -10 266 -10 z m 357 476 q 310 476 261 430 q 213 383 184 313 q 156 243 156 169 q 156 115 183 87 q 210 58 261 58 q 310 58 351 98 q 393 137 418 210 q 444 283 444 365 q 444 476 357 476 z"},"X":{"x_min":0,"x_max":519,"ha":519,"o":"m 467 0 l 379 0 l 275 313 l 40 0 l -51 0 l 240 379 l 112 714 l 196 714 l 295 439 l 511 714 l 602 714 l 331 375 z"},"*":{"x_min":0,"x_max":552,"ha":552,"o":"m 417 746 l 357 559 l 563 568 l 559 491 l 367 514 l 455 327 l 374 302 l 319 500 l 193 332 l 136 391 l 287 530 l 105 583 l 132 658 l 313 568 l 333 763 z"},"Y":{"x_min":0,"x_max":503,"ha":503,"o":"m 262 349 l 501 714 l 595 714 l 289 264 l 234 0 l 150 0 l 208 268 l 92 714 l 175 714 z"},"c":{"x_min":0,"x_max":450,"ha":450,"o":"m 247 -10 q 152 -10 100 42 q 48 95 48 190 q 48 288 84 370 q 120 453 184 499 q 248 545 327 545 q 394 545 458 520 l 435 451 q 376 476 328 476 q 273 476 228 439 q 183 401 157 335 q 132 268 132 190 q 132 127 164 93 q 197 58 254 58 q 289 58 320 68 q 352 78 382 91 l 382 21 q 321 -10 247 -10 z"},"!":{"x_min":0,"x_max":259,"ha":259,"o":"m 271 714 l 137 197 l 84 197 q 108 347 170 714 z m 21 38 q 21 75 40 97 q 60 118 93 118 q 115 118 128 105 q 142 91 142 65 q 142 32 123 9 q 104 -14 72 -14 q 48 -14 34 0 q 21 13 21 38 z"},"/":{"x_min":0,"x_max":350,"ha":350,"o":"m 436 714 l 39 0 l -46 0 l 351 714 z"},"[":{"x_min":0,"x_max":286,"ha":286,"o":"m 181 -158 l -8 -158 l 178 714 l 367 714 l 352 645 l 241 645 l 86 -89 l 197 -89 z"},"6":{"x_min":0,"x_max":551,"ha":551,"o":"m 65 207 q 65 309 94 410 q 124 510 174 581 q 225 652 294 688 q 364 724 454 724 q 508 724 544 713 l 527 642 q 494 653 444 653 q 340 653 270 580 q 199 507 166 364 l 170 364 q 199 402 241 425 q 284 448 336 448 q 411 448 455 400 q 499 352 499 268 q 499 189 467 124 q 434 59 378 25 q 323 -10 251 -10 q 162 -10 114 46 q 65 103 65 207 z m 260 59 q 306 59 342 85 q 377 112 397 158 q 417 205 417 260 q 417 381 309 381 q 277 381 247 367 q 216 353 193 330 q 169 307 158 279 q 146 251 146 203 q 146 136 176 98 q 205 59 260 59 z"},"r":{"x_min":0,"x_max":396,"ha":396,"o":"m 367 545 q 401 545 426 538 l 408 465 q 382 471 357 471 q 312 471 274 442 q 235 413 206 361 q 177 309 163 245 l 111 0 l 29 0 l 143 535 l 211 535 l 200 436 l 205 436 q 240 482 263 503 q 286 523 311 534 q 336 545 367 545 z"},"2":{"x_min":0,"x_max":551,"ha":551,"o":"m 445 0 l 6 0 l 21 72 l 248 277 q 298 322 334 357 q 371 391 394 422 q 418 452 429 482 q 441 512 441 549 q 441 597 412 625 q 382 654 332 654 q 294 654 259 640 q 223 626 179 593 l 139 649 q 232 724 341 724 q 427 724 477 681 q 527 638 527 562 q 527 508 508 462 q 488 417 444 366 q 399 315 300 229 l 128 79 l 128 75 l 459 75 z"},"{":{"x_min":0,"x_max":349,"ha":349,"o":"m 216 -158 q 147 -158 110 -133 q 73 -107 73 -49 q 73 -23 83 20 q 99 91 108 131 q 117 171 115 181 q 115 251 13 251 l 29 321 q 86 321 121 342 q 156 363 167 414 l 200 573 q 217 651 258 683 q 298 714 382 714 l 398 714 l 383 645 q 332 645 309 627 q 287 609 277 567 l 242 410 q 229 350 198 320 q 167 291 116 282 l 116 280 q 190 260 190 176 q 190 147 181 112 l 158 9 q 151 -20 151 -39 q 151 -65 169 -77 q 187 -89 227 -89 l 227 -158 z"},"9":{"x_min":0,"x_max":551,"ha":551,"o":"m 521 505 q 521 410 494 306 q 466 203 422 131 q 377 59 313 24 q 250 -10 166 -10 q 100 -10 48 7 l 48 84 q 113 61 168 61 q 267 61 328 130 q 389 199 420 345 l 415 345 q 390 309 350 287 q 311 266 262 266 q 180 266 135 314 q 90 362 90 455 q 90 530 121 592 q 153 654 209 689 q 266 724 336 724 q 424 724 472 668 q 521 612 521 505 z m 333 655 q 260 655 215 600 q 171 544 171 458 q 171 397 198 365 q 224 333 277 333 q 314 333 345 347 q 376 361 398 387 q 420 413 430 442 q 440 472 440 516 q 440 580 411 617 q 382 655 333 655 z"}," ":{"x_min":0,"x_max":260,"ha":260,"o":""},"I":{"x_min":0,"x_max":273,"ha":273,"o":"m 42 0 l 194 714 l 276 714 l 124 0 z"},"H":{"x_min":0,"x_max":678,"ha":678,"o":"m 530 0 l 448 0 l 518 336 l 196 336 l 125 0 l 42 0 l 193 714 l 276 714 l 212 410 l 534 410 l 599 714 l 681 714 z"},"4":{"x_min":0,"x_max":551,"ha":551,"o":"m 521 163 l 407 163 l 372 0 l 292 0 l 328 163 l 8 163 l 22 240 l 429 718 l 525 718 l 424 238 l 537 238 z m 344 238 q 367 345 382 420 q 398 495 439 637 l 435 637 q 427 623 403 590 q 378 557 367 543 l 107 238 z"},"~":{"x_min":0,"x_max":551,"ha":551,"o":"m 170 348 q 144 348 112 331 q 81 314 56 289 l 56 363 q 104 416 175 416 q 208 416 237 409 q 265 402 307 384 q 338 371 362 364 q 386 357 410 357 q 437 357 469 373 q 500 389 525 416 l 525 343 q 476 289 406 289 q 371 289 340 297 q 309 305 274 321 q 237 336 215 342 q 193 348 170 348 z"},"D":{"x_min":0,"x_max":666,"ha":666,"o":"m 635 428 q 635 301 583 203 q 532 105 437 53 q 342 0 214 0 l 42 0 l 193 714 l 360 714 q 495 714 565 641 q 635 568 635 428 z m 219 72 q 318 72 393 116 q 467 161 507 243 q 547 324 547 429 q 547 534 497 588 q 446 642 349 642 l 262 642 l 140 72 z"},"^":{"x_min":0,"x_max":517,"ha":517,"o":"m 26 270 l 318 719 l 371 719 l 501 270 l 430 270 l 332 635 l 104 270 z"},"0":{"x_min":0,"x_max":551,"ha":551,"o":"m 533 495 q 533 351 495 232 q 457 113 390 52 q 324 -10 237 -10 q 151 -10 105 52 q 59 115 59 233 q 59 365 99 484 q 139 604 205 664 q 271 725 355 725 q 533 725 533 495 z m 350 655 q 295 655 248 598 q 201 542 172 441 q 143 339 143 234 q 143 150 167 105 q 192 60 246 60 q 302 60 348 116 q 394 171 422 276 q 449 380 449 497 q 449 655 350 655 z"},"F":{"x_min":0,"x_max":472,"ha":472,"o":"m 126 0 l 42 0 l 193 714 l 552 714 l 537 639 l 260 639 l 206 379 l 464 379 l 448 304 l 190 304 z"},"`":{"x_min":0,"x_max":554,"ha":554,"o":"m 441 606 l 390 606 q 360 636 327 681 q 294 727 281 756 l 281 766 l 369 766 q 390 700 441 618 z"},"k":{"x_min":0,"x_max":488,"ha":488,"o":"m 161 273 l 418 535 l 516 535 l 287 307 l 431 0 l 340 0 l 225 256 l 151 196 l 111 0 l 28 0 l 189 760 l 272 760 q 237 596 209 466 q 181 336 159 273 z"},"u":{"x_min":0,"x_max":577,"ha":577,"o":"m 220 535 l 147 196 q 138 152 138 128 q 138 58 210 58 q 253 58 294 87 q 336 117 368 171 q 399 226 416 303 l 465 535 l 546 535 l 433 0 l 365 0 l 376 99 l 370 99 q 322 38 279 14 q 235 -10 189 -10 q 126 -10 91 24 q 55 58 55 121 q 55 151 66 205 l 137 535 z"},"]":{"x_min":0,"x_max":286,"ha":286,"o":"m -58 -89 l 52 -89 l 208 645 l 97 645 l 112 714 l 302 714 l 116 -158 l -73 -158 z"},"U":{"x_min":0,"x_max":676,"ha":676,"o":"m 687 714 l 587 242 q 560 114 490 52 q 421 -10 301 -10 q 188 -10 134 41 q 80 92 80 187 q 80 227 92 285 l 184 714 l 267 714 l 174 279 q 163 227 163 187 q 163 130 199 97 q 234 64 305 64 q 389 64 436 107 q 482 149 504 248 l 604 714 z"},"o":{"x_min":0,"x_max":561,"ha":561,"o":"m 314 542 q 407 542 460 487 q 514 432 514 336 q 514 244 479 163 q 444 81 384 37 q 324 -8 248 -8 q 154 -8 101 47 q 48 103 48 198 q 48 291 83 373 q 119 455 180 498 q 240 542 314 542 z m 429 347 q 429 403 399 438 q 368 473 316 473 q 263 473 220 437 q 178 401 155 337 q 132 272 132 194 q 132 130 163 95 q 194 60 252 60 q 303 60 343 96 q 384 131 406 197 q 429 263 429 347 z"},"N":{"x_min":0,"x_max":702,"ha":702,"o":"m 556 0 l 468 0 l 243 597 l 240 597 q 225 489 204 393 l 120 0 l 41 0 l 192 714 l 280 714 l 504 118 l 507 118 q 521 228 542 316 l 627 714 l 707 714 z"},"+":{"x_min":0,"x_max":551,"ha":551,"o":"m 252 318 l 62 318 l 62 387 l 252 387 l 252 578 l 321 578 l 321 387 l 511 387 l 511 318 l 321 318 l 321 129 l 252 129 z"},"G":{"x_min":0,"x_max":677,"ha":677,"o":"m 401 374 l 625 374 l 550 27 q 444 -10 345 -10 q 216 -10 145 61 q 73 131 73 258 q 73 389 123 497 q 172 604 260 664 q 348 724 455 724 q 512 724 562 714 q 612 705 663 683 l 631 609 q 593 625 550 638 q 507 650 455 650 q 373 650 305 600 q 237 551 200 462 q 162 373 162 263 q 162 170 212 117 q 262 64 352 64 q 427 64 479 83 l 526 300 l 385 300 z"},"q":{"x_min":0,"x_max":577,"ha":577,"o":"m 313 545 q 359 545 394 520 q 429 496 447 451 l 453 451 l 486 535 l 547 535 l 383 -240 l 302 -240 l 351 -6 q 355 16 379 102 l 375 102 q 329 43 285 17 q 241 -10 194 -10 q 125 -10 87 38 q 48 85 48 171 q 48 274 83 362 q 119 450 179 498 q 239 545 313 545 z m 219 58 q 264 58 312 103 q 360 148 389 219 q 419 290 419 365 q 419 417 392 446 q 366 476 318 476 q 269 476 226 435 q 183 394 157 321 q 132 249 132 169 q 132 58 219 58 z"},"d":{"x_min":0,"x_max":577,"ha":577,"o":"m 312 544 q 407 544 449 451 l 454 451 q 462 527 476 585 l 514 760 l 595 760 l 434 0 l 366 0 l 377 102 l 373 102 q 324 41 281 16 q 238 -10 192 -10 q 124 -10 86 38 q 48 86 48 171 q 48 275 83 362 q 118 449 178 497 q 238 544 312 544 z m 219 58 q 265 58 314 104 q 363 149 391 220 q 420 292 420 365 q 420 419 394 448 q 367 476 317 476 q 268 476 225 436 q 183 396 157 323 q 132 250 132 169 q 132 58 219 58 z"},"1":{"x_min":0,"x_max":551,"ha":551,"o":"m 287 0 l 203 0 l 299 446 q 328 573 342 621 q 317 595 274 567 l 187 513 l 148 575 l 367 714 l 440 714 z"},"5":{"x_min":0,"x_max":551,"ha":551,"o":"m 292 436 q 381 436 433 385 q 486 334 486 247 q 486 168 450 109 q 415 49 351 20 q 287 -10 200 -10 q 106 -10 39 29 l 39 109 q 119 59 202 59 q 295 59 348 106 q 400 153 400 237 q 400 298 364 334 q 328 370 264 370 q 241 370 217 367 q 193 364 149 352 l 113 380 l 209 714 l 535 714 l 519 639 l 264 639 l 202 425 q 245 436 292 436 z"}}}
